Coordinates
version=1
nRows=23
nColumns=27
inDegrees=yes

Units are S.I. units (second, meters, Newtons, ...)
If the header above contains a line with 'inDegrees', this indicates whether rotational values are in degrees (yes) or radians (no).

endheader
time	pelvis_rotation	pelvis_tilt	pelvis_list	pelvis_tx	pelvis_ty	pelvis_tz	hip_flexion_r	hip_adduction_r	hip_rotation_r	knee_angle_r	knee_rotation_r	knee_adduction_r	knee_angle_r_beta	ankle_angle_r	subtalar_angle_r	mtp_angle_r	hip_flexion_l	hip_adduction_l	hip_rotation_l	knee_angle_l	knee_rotation_l	knee_adduction_l	knee_angle_l_beta	ankle_angle_l	subtalar_angle_l	mtp_angle_l
      8.87500000	      0.55234327	    -40.66682858	      4.03211617	     -0.12275373	      0.86000892	     -1.20679921	     76.10006547	    -12.16221011	    -14.81450683	     42.70196925	      1.68791210	      8.36244960	      0.74528996	      4.20960154	      0.26252587	      0.00000000	     72.71708332	     -9.48787542	    -18.24526080	     38.04024545	      2.72468327	     -7.45216033	      0.66392753	      2.20462994	      3.18454189	      0.00000000
      8.88000000	      0.23270651	    -39.53627656	      3.91643450	     -0.12008973	      0.86191416	     -1.20679078	     74.37611644	    -12.01289084	    -15.28896799	     42.02675863	      1.59345216	      9.01889463	      0.73350531	      4.09038028	     -0.05168000	      0.00000000	     70.88338106	     -9.64606940	    -19.17673883	     37.38284245	      2.71489489	     -8.27966873	      0.65245368	      2.14593116	      2.89423587	      0.00000000
      8.88500000	      1.22247492	    -39.57324616	      4.30198366	     -0.11968746	      0.86192722	     -1.20775093	     74.41289034	    -12.93719636	    -15.97491112	     42.34627962	      1.44524212	      8.45891608	      0.73908201	      4.71571205	      1.61353443	      0.00000000	     71.14253901	     -8.65181396	    -18.49664871	     37.30423218	      2.11424792	     -7.15957687	      0.65108168	      2.46158321	      4.63993247	      0.00000000
      8.89000000	      0.97022414	    -39.97370772	      4.28737692	     -0.11968982	      0.86284598	     -1.20751562	     74.66659573	    -12.66526448	    -15.48725390	     41.97794045	      1.78525291	      8.93129685	      0.73265327	      4.16039782	      0.17585952	      0.00000000	     71.19469247	     -8.91250014	    -18.48905319	     36.91228244	      2.79698485	     -7.92889712	      0.64424086	      1.92717401	      2.65967937	      0.00000000
      8.89500000	      1.19225281	    -40.21470848	      4.17184199	     -0.12006296	      0.86297183	     -1.20758434	     74.82050071	    -12.72628060	    -15.42741685	     41.90126742	      1.91885497	      8.28255971	      0.73131508	      4.16417282	      0.59402848	      0.00000000	     71.55120628	     -8.77340957	    -17.59709101	     36.87301289	      2.91918784	     -7.04473015	      0.64355548	      1.89906948	      3.06252808	      0.00000000
      8.90000000	      0.14690755	    -38.77157477	      3.82499677	     -0.11695237	      0.86492722	     -1.20713900	     72.76712450	    -11.96548329	    -15.45277135	     41.05260875	      1.76279986	      8.94838716	      0.71650319	      3.93760319	      0.05779221	      0.00000000	     69.24484814	     -9.52166492	    -19.25129808	     36.33168890	      2.89048130	     -8.03456601	      0.63410759	      2.01359156	      3.08670861	      0.00000000
      8.90500000	      0.51091613	    -39.49366052	      3.96366122	     -0.11748154	      0.86492307	     -1.20744920	     73.56884674	    -12.22458125	    -15.42394734	     41.19251625	      1.88539108	      8.84697635	      0.71894504	      3.94428895	      0.04660834	      0.00000000	     70.11760771	     -9.23305242	    -18.66346008	     36.35608044	      2.97124850	     -7.73590062	      0.63453331	      1.93957508	      2.93951524	      0.00000000
      8.91000000	      0.63243818	    -39.63628874	      4.03273364	     -0.11775272	      0.86501347	     -1.20766421	     73.74103137	    -12.30687709	    -15.08302520	     41.22356689	      2.00353994	      8.16955768	      0.71948697	      4.02864727	      0.56219313	      0.00000000	     70.26875538	     -9.02342991	    -18.07007888	     36.22454923	      3.01311471	     -6.88308034	      0.63223765	      1.93123270	      3.31432758	      0.00000000
      8.91500000	     -0.19776004	    -38.34701648	      3.75411650	     -0.11480617	      0.86678849	     -1.20731079	     71.87870455	    -11.71369450	    -15.23401578	     40.46258401	      1.84943908	      8.85596709	      0.70620531	      3.80678479	      0.06521168	      0.00000000	     68.21081943	     -9.63295089	    -19.46406061	     35.74793041	      3.06411800	     -7.81167605	      0.62391909	      1.97691927	      3.20032421	      0.00000000
      8.92000000	      0.15096235	    -38.84692533	      3.88117787	     -0.11564231	      0.86652214	     -1.20767465	     72.51840111	    -11.94792794	    -14.96145690	     40.64984409	      1.95462351	      8.12746525	      0.70947362	      3.92713044	      0.63472030	      0.00000000	     68.92757343	     -9.29217716	    -18.57925778	     35.79277558	      3.09787293	     -6.87033202	      0.62470178	      1.93620557	      3.55869459	      0.00000000
      8.92500000	      0.76982504	    -39.24085143	      4.04833624	     -0.11572104	      0.86677769	     -1.20819418	     72.83849072	    -12.42085460	    -15.26418766	     40.68402819	      2.06630092	      8.06518148	      0.71007024	      4.00073638	      0.73556860	      0.00000000	     69.42193145	     -8.76113966	    -17.71543135	     35.63214061	      3.17422515	     -6.51909364	      0.62189817	      1.76820326	      3.29630813	      0.00000000
      8.93000000	     -0.53533271	    -37.63653308	      3.55035624	     -0.11221008	      0.86873907	     -1.20756805	     70.55888315	    -11.43052894	    -15.20773534	     39.72917423	      1.90572751	      8.76126597	      0.69340490	      3.68909519	      0.08306693	      0.00000000	     66.89520419	     -9.75522914	    -19.59884382	     35.15597678	      3.18450663	     -7.63119677	      0.61358755	      1.96054493	      3.38259164	      0.00000000
      8.93500000	      0.29383141	    -38.60269152	      3.66413170	     -0.11371611	      0.86825013	     -1.20808333	     71.67896778	    -11.93728105	    -15.25766280	     40.03029275	      2.07310395	      7.99532817	      0.69866041	      3.83439251	      0.60716420	      0.00000000	     68.33547288	     -9.11077661	    -17.86931557	     35.25861171	      3.25663483	     -6.44675774	      0.61537886	      1.82204600	      3.54030878	      0.00000000
      8.94000000	     -0.16418742	    -37.47049772	      2.85077508	     -0.11069821	      0.86998370	     -1.20748892	     69.69552293	    -11.30042802	    -16.43499758	     39.12736936	      1.79427696	      8.76772626	      0.68290142	      3.60956455	      0.17725710	      0.00000000	     66.76405961	     -9.78396265	    -18.20877475	     34.96763995	      3.37224372	     -7.21629998	      0.61030045	      1.91690174	      3.38723739	      0.00000000
      8.94500000	     -0.04589669	    -37.00582215	      3.16767191	     -0.10948221	      0.87074661	     -1.20801881	     69.08214965	    -11.57941056	    -16.33127648	     38.98517568	      1.85486472	      8.76657282	      0.68041968	      3.67380315	      0.31588880	      0.00000000	     65.94460101	     -9.42165427	    -18.44110241	     34.52603336	      3.32687234	     -7.18476954	      0.60259296	      1.80061353	      3.31915001	      0.00000000
      8.95000000	     -0.23793265	    -37.96142320	      3.05368282	     -0.11102177	      0.87008350	     -1.20783135	     70.33228337	    -11.24712166	    -15.43185606	     39.18810645	      1.99395710	      7.88359127	      0.68396149	      3.66246548	      0.47660563	      0.00000000	     67.24485680	     -9.64205714	    -17.82539133	     34.96195675	      3.40853618	     -6.18622901	      0.61020126	      1.96653103	      3.96815187	      0.00000000
      8.95500000	     -0.91875243	    -36.53075722	      3.18652094	     -0.10779239	      0.87175831	     -1.20792089	     68.47956425	    -10.95533437	    -15.34123448	     38.61017819	      1.83148366	      8.60024160	      0.67387473	      3.55064002	      0.12782679	      0.00000000	     64.89084291	     -9.89163297	    -19.52354567	     34.27028585	      3.38406727	     -7.16326756	      0.59812932	      1.96100391	      3.71816099	      0.00000000
      8.96000000	     -0.18249855	    -37.46485735	      3.32936240	     -0.10859528	      0.87160281	     -1.20839131	     69.49015231	    -11.42565592	    -15.61811321	     38.84593405	      1.93654519	      8.46534803	      0.67798945	      3.64170672	      0.07532123	      0.00000000	     66.15646928	     -9.34767033	    -18.29343458	     34.33194940	      3.47172248	     -6.61343986	      0.59920556	      1.82826023	      3.48932342	      0.00000000
      8.96500000	     -0.30496275	    -36.24209971	      2.96787502	     -0.10596557	      0.87301882	     -1.20831765	     67.61427988	    -11.21439576	    -16.27129617	     38.17736750	      1.80918292	      8.59441975	      0.66632076	      3.58088990	      0.24456282	      0.00000000	     64.48159991	     -9.47111918	    -18.43661134	     33.85165639	      3.41782280	     -6.74659244	      0.59082286	      1.86572361	      3.70413096	      0.00000000
      8.97000000	     -0.11046314	    -37.00418854	      3.15886852	     -0.10717920	      0.87253569	     -1.20851144	     68.68103831	    -11.30484341	    -15.60927144	     38.48867040	      1.86849294	      7.71585594	      0.67175402	      3.71642601	      0.75858300	      0.00000000	     65.48647840	     -9.23581918	    -17.73701450	     34.01652460	      3.45457102	     -5.80818831	      0.59370035	      1.88418578	      4.12294800	      0.00000000
      8.97500000	      0.03275917	    -35.77429723	      2.80187825	     -0.10396062	      0.87428186	     -1.20860469	     66.62026431	    -11.28953162	    -16.86529009	     37.71577691	      1.74688209	      8.57421589	      0.65826449	      3.63480376	      0.36652348	      0.00000000	     63.76576874	     -9.21203431	    -17.81772366	     33.42843258	      3.43261986	     -6.40741272	      0.58343621	      1.82205268	      3.84493825	      0.00000000
      8.98000000	     -1.16436367	    -35.11873078	      3.21414153	     -0.10263102	      0.87485921	     -1.20849450	     66.16144376	    -10.70116940	    -15.14617991	     37.58451504	      1.72489388	      8.39275322	      0.65597354	      3.51473949	      0.16199267	      0.00000000	     62.34949399	     -9.66873816	    -19.87034746	     33.10771418	      3.43506379	     -6.74630895	      0.57783862	      1.96988023	      4.13802343	      0.00000000
      8.98500000	     -0.74275598	    -34.96447498	      2.76206725	     -0.10159246	      0.87557887	     -1.20837657	     65.52579922	    -10.67419227	    -16.07601586	     37.19819919	      1.66429177	      8.41685240	      0.64923105	      3.51428253	      0.22027567	      0.00000000	     62.28078097	     -9.62874823	    -18.87847685	     33.00171990	      3.49050685	     -6.47865009	      0.57598867	      1.90570469	      4.13190596	      0.00000000
